<svg width="50" height="49" viewBox="0 0 50 49" fill="none" xmlns="http://www.w3.org/2000/svg">
<path d="M27.9931 8.21161C33.1054 8.21161 37.25 12.3215 37.25 17.3889C37.25 22.4563 33.1054 26.5642 27.9931 26.5642C25.8391 26.5696 23.7507 25.823 22.0883 24.4532C20.4259 23.0834 19.2938 21.1763 18.8873 19.061M45.4126 28.6038H40.5269C39.9266 28.6038 39.3345 28.7385 38.7976 28.9978L34.6326 31.0129C34.0931 31.2726 33.502 31.4073 32.9033 31.407H30.7759C28.7179 31.407 27.0498 33.0199 27.0498 35.0105C27.0498 35.0922 27.105 35.1616 27.1866 35.1841L32.3704 36.6153C33.2994 36.8725 34.2957 36.7827 35.1614 36.3642L39.6122 34.2122M27.0519 33.7018L17.6806 30.8231C16.8649 30.5719 15.9906 30.5854 15.1831 30.8615C14.3755 31.1377 13.676 31.6624 13.1849 32.3604C12.4315 33.4017 12.7378 34.8921 13.8341 35.525L29.167 44.3654C29.6463 44.6425 30.1768 44.8192 30.7265 44.8848C31.2761 44.9504 31.8333 44.9036 32.3643 44.7472L45.4105 40.8783" stroke="#F1317D" stroke-width="2.25" stroke-linecap="round" stroke-linejoin="round"/>
<path d="M4.5874 9.22835C7.70503 8.00743 12.1416 5.03068 14.5671 4.42022C19.9428 3.34018 22.7623 4.93064 29.1282 8.21364C26.4496 8.27081 22.8481 9.8041 21.0759 13.3056M21.0759 13.3056H17.4336M21.0759 13.3056H23.7484C24.5508 13.3668 26.2842 13.8486 26.9518 15.4023C27.2172 16.0271 27.2948 16.7662 26.7681 17.1418C26.0596 17.8728 25.0429 17.8442 24.1404 18.0034M24.1404 18.0034C23.1033 18.1872 22.1049 18.3913 21.0616 18.5955M24.1404 18.0034L21.0616 18.5955M21.0616 18.5955L20.3634 18.7282C18.7362 18.912 14.7712 20.8066 12.8398 21.3395C12.1824 21.6519 6.91286 22.6748 4.61599 22.4951" stroke="#F1317D" stroke-width="2.25" stroke-linecap="round" stroke-linejoin="round"/>
</svg>
