<svg width="49" height="49" viewBox="0 0 49 49" fill="none" xmlns="http://www.w3.org/2000/svg">
<path d="M22.4584 34.7696L40.8334 42.875C39.6982 41.7398 37.7505 38.0628 39.0285 32.4298C40.6251 25.3881 43.6223 18.3076 32.536 14.4223C28.6507 3.33608 21.5702 6.33325 14.5285 7.92983C8.89354 9.20792 5.21854 7.26017 4.08337 6.125L12.25 24.6511M16.3334 30.625H10.2084L4.08337 36.75H10.2084V42.875L16.3334 36.75V30.625ZM16.3334 30.625L40.8334 6.125M34.7084 6.125H38.7917C39.7533 6.125 40.2352 6.125 40.5353 6.42308C40.8334 6.72321 40.8334 7.20708 40.8334 8.16667V12.25" stroke="#F1317D" stroke-width="2.25" stroke-linecap="round" stroke-linejoin="round"/>
</svg>
