<svg width="49" height="49" viewBox="0 0 49 49" fill="none" xmlns="http://www.w3.org/2000/svg">
<path d="M24.4922 29.0229L10.6363 45.2893C10.1957 45.8022 9.65382 46.2186 9.04476 46.5124C8.4357 46.8061 7.77253 46.9709 7.09681 46.9965C6.42109 47.022 5.74737 46.9078 5.11786 46.6609C4.48835 46.4139 3.91661 46.0397 3.43846 45.5615C2.96031 45.0834 2.58605 44.5117 2.33913 43.8821C2.09222 43.2526 1.97795 42.5789 2.00351 41.9032C2.02906 41.2275 2.19388 40.5643 2.48764 39.9552C2.7814 39.3462 3.19777 38.8043 3.71067 38.3637L19.9771 24.5078M47 24.294L33.2815 38.0125M24.706 2L10.9875 15.7185M22.9909 3.7151L12.7026 14.0034C12.7026 14.0034 17.8478 20.8638 22.9909 26.0091C28.1362 31.1522 34.9966 36.2975 34.9966 36.2975L45.2849 26.0091C45.2849 26.0091 40.1396 19.1487 34.9966 14.0034C29.8513 8.86039 22.9909 3.7151 22.9909 3.7151Z" stroke="#F1317D" stroke-width="2.25" stroke-linecap="round" stroke-linejoin="round"/>
</svg>
